<svg xmlns="http://www.w3.org/2000/svg" version="1.1" xmlns:xlink="http://www.w3.org/1999/xlink" xmlns:svgjs="http://svgjs.dev/svgjs" width="1440" height="560" preserveAspectRatio="none" viewBox="0 0 1440 560"><g mask="url(&quot;#SvgjsMask1000&quot;)" fill="none"><rect width="1440" height="560" x="0" y="0" fill="#0e2a47"></rect><path d="M 0,339 C 57.6,323.4 172.8,262.6 288,261 C 403.2,259.4 460.8,357.2 576,331 C 691.2,304.8 748.8,128.6 864,130 C 979.2,131.4 1036.8,328 1152,338 C 1267.2,348 1382.4,211.6 1440,180L1440 560L0 560z" fill="#184a7e"></path><path d="M 0,46 C 96,118.2 288,365.6 480,407 C 672,448.4 768,255.6 960,253 C 1152,250.4 1344,365.8 1440,394L1440 560L0 560z" fill="#2264ab"></path></g><defs><mask id="SvgjsMask1000"><rect width="1440" height="560" fill="#ffffff"></rect></mask></defs></svg>