<svg xmlns="http://www.w3.org/2000/svg" version="1.1" xmlns:xlink="http://www.w3.org/1999/xlink" xmlns:svgjs="http://svgjs.dev/svgjs" width="1440" height="560" preserveAspectRatio="none" viewBox="0 0 1440 560"><g mask="url(&quot;#SvgjsMask1000&quot;)" fill="none"><rect width="1440" height="560" x="0" y="0" fill="#0e2a47"></rect><path d="M687.01 635.2C834.49 609.28 909.07 244.06 1139.9 243.2 1370.74 242.34 1467.81 450.79 1592.8 456" stroke="rgba(51,121,194,0.58)" stroke-width="2"></path><path d="M680.04 656.31C805.73 619.47 764.71 264.38 1027.37 264.1 1290.03 263.82 1536.85 517.6 1722.02 521.7" stroke="rgba(51,121,194,0.58)" stroke-width="2"></path><path d="M222.37 625.7C402.22 622.9 550.28 406.45 906.35 402.47 1262.41 398.49 1413.91 230.22 1590.32 228.87" stroke="rgba(51,121,194,0.58)" stroke-width="2"></path><path d="M825.07 640.65C905.16 633.75 871.92 479.03 1097.38 469.63 1322.83 460.23 1495.86 260.56 1641.99 256.83" stroke="rgba(51,121,194,0.58)" stroke-width="2"></path><path d="M258.19 592.26C449.36 565.03 551.87 118.51 866.17 115.86 1180.47 113.21 1317.19 271.4 1474.15 272.66" stroke="rgba(51,121,194,0.58)" stroke-width="2"></path></g><defs><mask id="SvgjsMask1000"><rect width="1440" height="560" fill="#ffffff"></rect></mask></defs></svg>