<svg xmlns="http://www.w3.org/2000/svg" version="1.1" xmlns:xlink="http://www.w3.org/1999/xlink" xmlns:svgjs="http://svgjs.dev/svgjs" width="1440" height="560" preserveAspectRatio="none" viewBox="0 0 1440 560"><g mask="url(&quot;#SvgjsMask1008&quot;)" fill="none"><rect width="1440" height="560" x="0" y="0" fill="#0e2a47"></rect><path d="M890.57-45.47C755.43-9.8 801.7 360.78 508.02 362.24 214.33 363.7-61.84 206.24-257.09 205.44" stroke="rgba(51,121,194,0.58)" stroke-width="2"></path><path d="M740.38-61.87C607.33-59.49 510.53 101.98 236.91 110.88-36.7 119.78-125.36 361.14-266.55 368.48" stroke="rgba(51,121,194,0.58)" stroke-width="2"></path><path d="M1118.84-72.67C955.2-63.86 856.58 216.81 536.99 229.19 217.4 241.57 111.46 454.69-44.86 458.79" stroke="rgba(51,121,194,0.58)" stroke-width="2"></path><path d="M1012.7-18.56C862.49 42.03 931.09 499.54 629.61 503.91 328.14 508.28 58.95 347.91-136.56 347.11" stroke="rgba(51,121,194,0.58)" stroke-width="2"></path><path d="M585.26-5.72C496.55 14.28 545.47 236.55 325.53 248.93 105.58 261.31-58.3 404.03-193.94 405.73" stroke="rgba(51,121,194,0.58)" stroke-width="2"></path></g><defs><mask id="SvgjsMask1008"><rect width="1440" height="560" fill="#ffffff"></rect></mask></defs></svg>