<svg xmlns="http://www.w3.org/2000/svg" version="1.1" xmlns:xlink="http://www.w3.org/1999/xlink" xmlns:svgjs="http://svgjs.dev/svgjs" width="1440" height="560" preserveAspectRatio="none" viewBox="0 0 1440 560"><g mask="url(&quot;#SvgjsMask1002&quot;)" fill="none"><rect width="1440" height="560" x="0" y="0" fill="url(&quot;#SvgjsLinearGradient1003&quot;)"></rect><path d="M1440 0L842.13 0L1440 177.29z" fill="rgba(255, 255, 255, .1)"></path><path d="M842.13 0L1440 177.29L1440 237.45L492.33 0z" fill="rgba(255, 255, 255, .075)"></path><path d="M492.3299999999999 0L1440 237.45L1440 246.13L309.15999999999997 0z" fill="rgba(255, 255, 255, .05)"></path><path d="M309.15999999999985 0L1440 246.13L1440 345.43L260.07999999999987 0z" fill="rgba(255, 255, 255, .025)"></path><path d="M0 560L390.61 560L0 378.89z" fill="rgba(0, 0, 0, .1)"></path><path d="M0 378.89L390.61 560L844.1500000000001 560L0 266.16999999999996z" fill="rgba(0, 0, 0, .075)"></path><path d="M0 266.16999999999996L844.1500000000001 560L870.5900000000001 560L0 178.04999999999995z" fill="rgba(0, 0, 0, .05)"></path><path d="M0 178.04999999999995L870.5900000000001 560L1055.0200000000002 560L0 57.74999999999996z" fill="rgba(0, 0, 0, .025)"></path></g><defs><mask id="SvgjsMask1002"><rect width="1440" height="560" fill="#ffffff"></rect></mask><linearGradient x1="15.28%" y1="-39.29%" x2="84.72%" y2="139.29%" gradientUnits="userSpaceOnUse" id="SvgjsLinearGradient1003"><stop stop-color="#0e2a47" offset="0"></stop><stop stop-color="#00459e" offset="1"></stop></linearGradient></defs></svg>