<svg xmlns="http://www.w3.org/2000/svg" version="1.1" xmlns:xlink="http://www.w3.org/1999/xlink" xmlns:svgjs="http://svgjs.dev/svgjs" width="1440" height="560" preserveAspectRatio="none" viewBox="0 0 1440 560"><g mask="url(&quot;#SvgjsMask1000&quot;)" fill="none"><rect width="1440" height="560" x="0" y="0" fill="#0e2a47"></rect><path d="M-54.24 400.49L-54.24 400.49" stroke="#132e65" stroke-width="1.5"></path><path d="M-54.24 400.49L-90.7 515.15" stroke="#132e65" stroke-width="1.5"></path><path d="M-54.24 400.49L92.29 399.71" stroke="#132e65" stroke-width="1.5"></path><path d="M-90.7 515.15L-90.7 515.15" stroke="#132e65" stroke-width="1.5"></path><path d="M-45 659.36L-45 659.36" stroke="#132e65" stroke-width="1.5"></path><path d="M-45 659.36L98.17 661.24" stroke="#132e65" stroke-width="1.5"></path><path d="M-45 659.36L-90.7 515.15" stroke="#132e65" stroke-width="1.5"></path><path d="M-45 659.36L95.16 550.11" stroke="#132e65" stroke-width="1.5"></path><path d="M-45 659.36L-54.24 400.49" stroke="#132e65" stroke-width="1.5"></path><path d="M-45 659.36L196.26 507.41" stroke="#132e65" stroke-width="1.5"></path><path d="M92.29 399.71L92.29 399.71" stroke="#132e65" stroke-width="1.5"></path><path d="M92.29 399.71L210.74 410.76" stroke="#132e65" stroke-width="1.5"></path><path d="M92.29 399.71L196.26 507.41" stroke="#132e65" stroke-width="1.5"></path><path d="M92.29 399.71L95.16 550.11" stroke="#132e65" stroke-width="1.5"></path><path d="M92.29 399.71L-90.7 515.15" stroke="#132e65" stroke-width="1.5"></path><path d="M95.16 550.11L95.16 550.11" stroke="#132e65" stroke-width="1.5"></path><path d="M95.16 550.11L196.26 507.41" stroke="#132e65" stroke-width="1.5"></path><path d="M95.16 550.11L98.17 661.24" stroke="#132e65" stroke-width="1.5"></path><path d="M98.17 661.24L98.17 661.24" stroke="#132e65" stroke-width="1.5"></path><path d="M98.17 661.24L257.85 639.87" stroke="#132e65" stroke-width="1.5"></path><path d="M98.17 661.24L196.26 507.41" stroke="#132e65" stroke-width="1.5"></path><path d="M98.17 661.24L-90.7 515.15" stroke="#132e65" stroke-width="1.5"></path><path d="M98.17 661.24L92.29 399.71" stroke="#132e65" stroke-width="1.5"></path><path d="M210.74 410.76L210.74 410.76" stroke="#132e65" stroke-width="1.5"></path><path d="M210.74 410.76L196.26 507.41" stroke="#132e65" stroke-width="1.5"></path><path d="M210.74 410.76L389.05 407.49" stroke="#132e65" stroke-width="1.5"></path><path d="M210.74 410.76L95.16 550.11" stroke="#132e65" stroke-width="1.5"></path><path d="M210.74 410.76L257.85 639.87" stroke="#132e65" stroke-width="1.5"></path><path d="M196.26 507.41L196.26 507.41" stroke="#132e65" stroke-width="1.5"></path><path d="M196.26 507.41L257.85 639.87" stroke="#132e65" stroke-width="1.5"></path><path d="M196.26 507.41L400.37 552.41" stroke="#132e65" stroke-width="1.5"></path><path d="M257.85 639.87L257.85 639.87" stroke="#132e65" stroke-width="1.5"></path><path d="M257.85 639.87L361.68 681.34" stroke="#132e65" stroke-width="1.5"></path><path d="M389.05 407.49L389.05 407.49" stroke="#132e65" stroke-width="1.5"></path><path d="M389.05 407.49L522.02 409.31" stroke="#132e65" stroke-width="1.5"></path><path d="M389.05 407.49L400.37 552.41" stroke="#132e65" stroke-width="1.5"></path><path d="M400.37 552.41L400.37 552.41" stroke="#132e65" stroke-width="1.5"></path><path d="M400.37 552.41L361.68 681.34" stroke="#132e65" stroke-width="1.5"></path><path d="M361.68 681.34L361.68 681.34" stroke="#132e65" stroke-width="1.5"></path><path d="M361.68 681.34L548.49 648.87" stroke="#132e65" stroke-width="1.5"></path><path d="M522.02 409.31L522.02 409.31" stroke="#132e65" stroke-width="1.5"></path><path d="M522.02 409.31L561.03 533.91" stroke="#132e65" stroke-width="1.5"></path><path d="M522.02 409.31L688.12 412.18" stroke="#132e65" stroke-width="1.5"></path><path d="M522.02 409.31L400.37 552.41" stroke="#132e65" stroke-width="1.5"></path><path d="M522.02 409.31L700.13 488.35" stroke="#132e65" stroke-width="1.5"></path><path d="M522.02 409.31L681.46 252.14" stroke="#132e65" stroke-width="1.5"></path><path d="M561.03 533.91L561.03 533.91" stroke="#132e65" stroke-width="1.5"></path><path d="M561.03 533.91L548.49 648.87" stroke="#132e65" stroke-width="1.5"></path><path d="M561.03 533.91L700.13 488.35" stroke="#132e65" stroke-width="1.5"></path><path d="M561.03 533.91L400.37 552.41" stroke="#132e65" stroke-width="1.5"></path><path d="M561.03 533.91L688.12 412.18" stroke="#132e65" stroke-width="1.5"></path><path d="M561.03 533.91L389.05 407.49" stroke="#132e65" stroke-width="1.5"></path><path d="M548.49 648.87L548.49 648.87" stroke="#132e65" stroke-width="1.5"></path><path d="M548.49 648.87L400.37 552.41" stroke="#132e65" stroke-width="1.5"></path><path d="M681.46 252.14L681.46 252.14" stroke="#132e65" stroke-width="1.5"></path><path d="M681.46 252.14L688.12 412.18" stroke="#132e65" stroke-width="1.5"></path><path d="M681.46 252.14L832.41 191.44" stroke="#132e65" stroke-width="1.5"></path><path d="M681.46 252.14L822.81 368.63" stroke="#132e65" stroke-width="1.5"></path><path d="M688.12 412.18L688.12 412.18" stroke="#132e65" stroke-width="1.5"></path><path d="M688.12 412.18L700.13 488.35" stroke="#132e65" stroke-width="1.5"></path><path d="M688.12 412.18L822.81 368.63" stroke="#132e65" stroke-width="1.5"></path><path d="M700.13 488.35L700.13 488.35" stroke="#132e65" stroke-width="1.5"></path><path d="M700.13 488.35L808.71 559.87" stroke="#132e65" stroke-width="1.5"></path><path d="M700.13 488.35L822.81 368.63" stroke="#132e65" stroke-width="1.5"></path><path d="M860.81 61.86L860.81 61.86" stroke="#132e65" stroke-width="1.5"></path><path d="M860.81 61.86L966.84 73.81" stroke="#132e65" stroke-width="1.5"></path><path d="M860.81 61.86L832.41 191.44" stroke="#132e65" stroke-width="1.5"></path><path d="M860.81 61.86L973.23 -54.37" stroke="#132e65" stroke-width="1.5"></path><path d="M860.81 61.86L991.21 195.79" stroke="#132e65" stroke-width="1.5"></path><path d="M860.81 61.86L681.46 252.14" stroke="#132e65" stroke-width="1.5"></path><path d="M860.81 61.86L1129.46 49.48" stroke="#132e65" stroke-width="1.5"></path><path d="M832.41 191.44L832.41 191.44" stroke="#132e65" stroke-width="1.5"></path><path d="M832.41 191.44L991.21 195.79" stroke="#132e65" stroke-width="1.5"></path><path d="M832.41 191.44L822.81 368.63" stroke="#132e65" stroke-width="1.5"></path><path d="M822.81 368.63L822.81 368.63" stroke="#132e65" stroke-width="1.5"></path><path d="M822.81 368.63L1006.87 394.5" stroke="#132e65" stroke-width="1.5"></path><path d="M808.71 559.87L808.71 559.87" stroke="#132e65" stroke-width="1.5"></path><path d="M808.71 559.87L787.92 696.49" stroke="#132e65" stroke-width="1.5"></path><path d="M787.92 696.49L787.92 696.49" stroke="#132e65" stroke-width="1.5"></path><path d="M787.92 696.49L1011.65 704.03" stroke="#132e65" stroke-width="1.5"></path><path d="M973.23 -54.37L973.23 -54.37" stroke="#132e65" stroke-width="1.5"></path><path d="M973.23 -54.37L966.84 73.81" stroke="#132e65" stroke-width="1.5"></path><path d="M973.23 -54.37L1146.38 -110.46" stroke="#132e65" stroke-width="1.5"></path><path d="M973.23 -54.37L1129.46 49.48" stroke="#132e65" stroke-width="1.5"></path><path d="M973.23 -54.37L991.21 195.79" stroke="#132e65" stroke-width="1.5"></path><path d="M973.23 -54.37L832.41 191.44" stroke="#132e65" stroke-width="1.5"></path><path d="M966.84 73.81L966.84 73.81" stroke="#132e65" stroke-width="1.5"></path><path d="M966.84 73.81L991.21 195.79" stroke="#132e65" stroke-width="1.5"></path><path d="M991.21 195.79L991.21 195.79" stroke="#132e65" stroke-width="1.5"></path><path d="M991.21 195.79L1087.76 349.43" stroke="#132e65" stroke-width="1.5"></path><path d="M991.21 195.79L1006.87 394.5" stroke="#132e65" stroke-width="1.5"></path><path d="M991.21 195.79L1129.46 49.48" stroke="#132e65" stroke-width="1.5"></path><path d="M1006.87 394.5L1006.87 394.5" stroke="#132e65" stroke-width="1.5"></path><path d="M1006.87 394.5L1087.76 349.43" stroke="#132e65" stroke-width="1.5"></path><path d="M1006.87 394.5L978.05 509.52" stroke="#132e65" stroke-width="1.5"></path><path d="M1006.87 394.5L1094 550.81" stroke="#132e65" stroke-width="1.5"></path><path d="M978.05 509.52L978.05 509.52" stroke="#132e65" stroke-width="1.5"></path><path d="M978.05 509.52L1094 550.81" stroke="#132e65" stroke-width="1.5"></path><path d="M978.05 509.52L808.71 559.87" stroke="#132e65" stroke-width="1.5"></path><path d="M978.05 509.52L1087.76 349.43" stroke="#132e65" stroke-width="1.5"></path><path d="M978.05 509.52L1011.65 704.03" stroke="#132e65" stroke-width="1.5"></path><path d="M1011.65 704.03L1011.65 704.03" stroke="#132e65" stroke-width="1.5"></path><path d="M1011.65 704.03L1143.49 688.96" stroke="#132e65" stroke-width="1.5"></path><path d="M1011.65 704.03L1094 550.81" stroke="#132e65" stroke-width="1.5"></path><path d="M1011.65 704.03L808.71 559.87" stroke="#132e65" stroke-width="1.5"></path><path d="M1146.38 -110.46L1146.38 -110.46" stroke="#132e65" stroke-width="1.5"></path><path d="M1146.38 -110.46L1262.99 -98.46" stroke="#132e65" stroke-width="1.5"></path><path d="M1146.38 -110.46L1129.46 49.48" stroke="#132e65" stroke-width="1.5"></path><path d="M1146.38 -110.46L1310.86 69.54" stroke="#132e65" stroke-width="1.5"></path><path d="M1146.38 -110.46L1388.5 -49.2" stroke="#132e65" stroke-width="1.5"></path><path d="M1146.38 -110.46L966.84 73.81" stroke="#132e65" stroke-width="1.5"></path><path d="M1129.46 49.48L1129.46 49.48" stroke="#132e65" stroke-width="1.5"></path><path d="M1129.46 49.48L966.84 73.81" stroke="#132e65" stroke-width="1.5"></path><path d="M1087.76 349.43L1087.76 349.43" stroke="#132e65" stroke-width="1.5"></path><path d="M1094 550.81L1094 550.81" stroke="#132e65" stroke-width="1.5"></path><path d="M1143.49 688.96L1143.49 688.96" stroke="#132e65" stroke-width="1.5"></path><path d="M1143.49 688.96L1273.95 666.64" stroke="#132e65" stroke-width="1.5"></path><path d="M1143.49 688.96L1094 550.81" stroke="#132e65" stroke-width="1.5"></path><path d="M1143.49 688.96L1256.31 515.22" stroke="#132e65" stroke-width="1.5"></path><path d="M1143.49 688.96L978.05 509.52" stroke="#132e65" stroke-width="1.5"></path><path d="M1262.99 -98.46L1262.99 -98.46" stroke="#132e65" stroke-width="1.5"></path><path d="M1262.99 -98.46L1388.5 -49.2" stroke="#132e65" stroke-width="1.5"></path><path d="M1262.99 -98.46L1310.86 69.54" stroke="#132e65" stroke-width="1.5"></path><path d="M1262.99 -98.46L1129.46 49.48" stroke="#132e65" stroke-width="1.5"></path><path d="M1262.99 -98.46L1436.6 84.66" stroke="#132e65" stroke-width="1.5"></path><path d="M1310.86 69.54L1310.86 69.54" stroke="#132e65" stroke-width="1.5"></path><path d="M1310.86 69.54L1436.6 84.66" stroke="#132e65" stroke-width="1.5"></path><path d="M1310.86 69.54L1388.5 -49.2" stroke="#132e65" stroke-width="1.5"></path><path d="M1310.86 69.54L1284.08 226.2" stroke="#132e65" stroke-width="1.5"></path><path d="M1284.08 226.2L1284.08 226.2" stroke="#132e65" stroke-width="1.5"></path><path d="M1284.08 226.2L1388.27 233.23" stroke="#132e65" stroke-width="1.5"></path><path d="M1284.08 226.2L1300.84 388.17" stroke="#132e65" stroke-width="1.5"></path><path d="M1284.08 226.2L1436.6 84.66" stroke="#132e65" stroke-width="1.5"></path><path d="M1284.08 226.2L1087.76 349.43" stroke="#132e65" stroke-width="1.5"></path><path d="M1284.08 226.2L1129.46 49.48" stroke="#132e65" stroke-width="1.5"></path><path d="M1300.84 388.17L1300.84 388.17" stroke="#132e65" stroke-width="1.5"></path><path d="M1300.84 388.17L1256.31 515.22" stroke="#132e65" stroke-width="1.5"></path><path d="M1300.84 388.17L1388.27 233.23" stroke="#132e65" stroke-width="1.5"></path><path d="M1256.31 515.22L1256.31 515.22" stroke="#132e65" stroke-width="1.5"></path><path d="M1256.31 515.22L1273.95 666.64" stroke="#132e65" stroke-width="1.5"></path><path d="M1256.31 515.22L1094 550.81" stroke="#132e65" stroke-width="1.5"></path><path d="M1273.95 666.64L1273.95 666.64" stroke="#132e65" stroke-width="1.5"></path><path d="M1273.95 666.64L1456.66 654.52" stroke="#132e65" stroke-width="1.5"></path><path d="M1273.95 666.64L1444.81 545.21" stroke="#132e65" stroke-width="1.5"></path><path d="M1273.95 666.64L1094 550.81" stroke="#132e65" stroke-width="1.5"></path><path d="M1388.5 -49.2L1388.5 -49.2" stroke="#132e65" stroke-width="1.5"></path><path d="M1388.5 -49.2L1436.6 84.66" stroke="#132e65" stroke-width="1.5"></path><path d="M1388.5 -49.2L1572.91 -90.83" stroke="#132e65" stroke-width="1.5"></path><path d="M1388.5 -49.2L1563.65 90.55" stroke="#132e65" stroke-width="1.5"></path><path d="M1436.6 84.66L1436.6 84.66" stroke="#132e65" stroke-width="1.5"></path><path d="M1436.6 84.66L1563.65 90.55" stroke="#132e65" stroke-width="1.5"></path><path d="M1436.6 84.66L1388.27 233.23" stroke="#132e65" stroke-width="1.5"></path><path d="M1436.6 84.66L1575.37 251.34" stroke="#132e65" stroke-width="1.5"></path><path d="M1388.27 233.23L1388.27 233.23" stroke="#132e65" stroke-width="1.5"></path><path d="M1388.27 233.23L1310.86 69.54" stroke="#132e65" stroke-width="1.5"></path><path d="M1388.27 233.23L1575.37 251.34" stroke="#132e65" stroke-width="1.5"></path><path d="M1444.81 545.21L1444.81 545.21" stroke="#132e65" stroke-width="1.5"></path><path d="M1444.81 545.21L1456.66 654.52" stroke="#132e65" stroke-width="1.5"></path><path d="M1444.81 545.21L1568.07 502.78" stroke="#132e65" stroke-width="1.5"></path><path d="M1444.81 545.21L1541.7 680.23" stroke="#132e65" stroke-width="1.5"></path><path d="M1444.81 545.21L1256.31 515.22" stroke="#132e65" stroke-width="1.5"></path><path d="M1444.81 545.21L1555.87 386.59" stroke="#132e65" stroke-width="1.5"></path><path d="M1456.66 654.52L1456.66 654.52" stroke="#132e65" stroke-width="1.5"></path><path d="M1456.66 654.52L1541.7 680.23" stroke="#132e65" stroke-width="1.5"></path><path d="M1572.91 -90.83L1572.91 -90.83" stroke="#132e65" stroke-width="1.5"></path><path d="M1572.91 -90.83L1563.65 90.55" stroke="#132e65" stroke-width="1.5"></path><path d="M1572.91 -90.83L1436.6 84.66" stroke="#132e65" stroke-width="1.5"></path><path d="M1572.91 -90.83L1310.86 69.54" stroke="#132e65" stroke-width="1.5"></path><path d="M1572.91 -90.83L1262.99 -98.46" stroke="#132e65" stroke-width="1.5"></path><path d="M1563.65 90.55L1563.65 90.55" stroke="#132e65" stroke-width="1.5"></path><path d="M1563.65 90.55L1575.37 251.34" stroke="#132e65" stroke-width="1.5"></path><path d="M1575.37 251.34L1575.37 251.34" stroke="#132e65" stroke-width="1.5"></path><path d="M1575.37 251.34L1555.87 386.59" stroke="#132e65" stroke-width="1.5"></path><path d="M1575.37 251.34L1568.07 502.78" stroke="#132e65" stroke-width="1.5"></path><path d="M1555.87 386.59L1555.87 386.59" stroke="#132e65" stroke-width="1.5"></path><path d="M1555.87 386.59L1568.07 502.78" stroke="#132e65" stroke-width="1.5"></path><path d="M1568.07 502.78L1568.07 502.78" stroke="#132e65" stroke-width="1.5"></path><path d="M1568.07 502.78L1541.7 680.23" stroke="#132e65" stroke-width="1.5"></path><path d="M1568.07 502.78L1456.66 654.52" stroke="#132e65" stroke-width="1.5"></path><path d="M1541.7 680.23L1541.7 680.23" stroke="#132e65" stroke-width="1.5"></path><circle r="5" cx="-54.24" cy="400.49" fill="#132e65"></circle><circle r="5" cx="-90.7" cy="515.15" fill="#132e65"></circle><circle r="5" cx="-45" cy="659.36" fill="#132e65"></circle><circle r="5" cx="92.29" cy="399.71" fill="#132e65"></circle><circle r="5" cx="95.16" cy="550.11" fill="#132e65"></circle><circle r="5" cx="98.17" cy="661.24" fill="#132e65"></circle><circle r="5" cx="210.74" cy="410.76" fill="#132e65"></circle><circle r="5" cx="196.26" cy="507.41" fill="#132e65"></circle><circle r="5" cx="257.85" cy="639.87" fill="#132e65"></circle><circle r="5" cx="389.05" cy="407.49" fill="#132e65"></circle><circle r="5" cx="400.37" cy="552.41" fill="#132e65"></circle><circle r="5" cx="361.68" cy="681.34" fill="#132e65"></circle><circle r="5" cx="522.02" cy="409.31" fill="#132e65"></circle><circle r="5" cx="561.03" cy="533.91" fill="#132e65"></circle><circle r="5" cx="548.49" cy="648.87" fill="#132e65"></circle><circle r="5" cx="681.46" cy="252.14" fill="#132e65"></circle><circle r="5" cx="688.12" cy="412.18" fill="#132e65"></circle><circle r="5" cx="700.13" cy="488.35" fill="#132e65"></circle><circle r="5" cx="860.81" cy="61.86" fill="#132e65"></circle><circle r="5" cx="832.41" cy="191.44" fill="#132e65"></circle><circle r="5" cx="822.81" cy="368.63" fill="#132e65"></circle><circle r="5" cx="808.71" cy="559.87" fill="#132e65"></circle><circle r="5" cx="787.92" cy="696.49" fill="#132e65"></circle><circle r="5" cx="973.23" cy="-54.37" fill="#132e65"></circle><circle r="5" cx="966.84" cy="73.81" fill="#132e65"></circle><circle r="5" cx="991.21" cy="195.79" fill="#132e65"></circle><circle r="5" cx="1006.87" cy="394.5" fill="#132e65"></circle><circle r="5" cx="978.05" cy="509.52" fill="#132e65"></circle><circle r="5" cx="1011.65" cy="704.03" fill="#132e65"></circle><circle r="5" cx="1146.38" cy="-110.46" fill="#132e65"></circle><circle r="5" cx="1129.46" cy="49.48" fill="#132e65"></circle><circle r="5" cx="1087.76" cy="349.43" fill="#132e65"></circle><circle r="5" cx="1094" cy="550.81" fill="#132e65"></circle><circle r="5" cx="1143.49" cy="688.96" fill="#132e65"></circle><circle r="5" cx="1262.99" cy="-98.46" fill="#132e65"></circle><circle r="5" cx="1310.86" cy="69.54" fill="#132e65"></circle><circle r="5" cx="1284.08" cy="226.2" fill="#132e65"></circle><circle r="5" cx="1300.84" cy="388.17" fill="#132e65"></circle><circle r="5" cx="1256.31" cy="515.22" fill="#132e65"></circle><circle r="5" cx="1273.95" cy="666.64" fill="#132e65"></circle><circle r="5" cx="1388.5" cy="-49.2" fill="#132e65"></circle><circle r="5" cx="1436.6" cy="84.66" fill="#132e65"></circle><circle r="5" cx="1388.27" cy="233.23" fill="#132e65"></circle><circle r="5" cx="1444.81" cy="545.21" fill="#132e65"></circle><circle r="5" cx="1456.66" cy="654.52" fill="#132e65"></circle><circle r="5" cx="1572.91" cy="-90.83" fill="#132e65"></circle><circle r="5" cx="1563.65" cy="90.55" fill="#132e65"></circle><circle r="5" cx="1575.37" cy="251.34" fill="#132e65"></circle><circle r="5" cx="1555.87" cy="386.59" fill="#132e65"></circle><circle r="5" cx="1568.07" cy="502.78" fill="#132e65"></circle><circle r="5" cx="1541.7" cy="680.23" fill="#132e65"></circle><path d="M41.64 503.36L41.64 503.36" stroke="hsl(228.5, 77.2%, 51.5%)" stroke-width="1.5"></path><path d="M41.64 503.36L-70.89 547.05" stroke="hsl(228.5, 77.2%, 51.5%)" stroke-width="1.5"></path><path d="M41.64 503.36L187.92 516.59" stroke="hsl(228.5, 77.2%, 51.5%)" stroke-width="1.5"></path><path d="M41.64 503.36L50.12 662.34" stroke="hsl(228.5, 77.2%, 51.5%)" stroke-width="1.5"></path><path d="M522.9 402.04L522.9 402.04" stroke="hsl(228.5, 77.2%, 51.5%)" stroke-width="1.5"></path><path d="M522.9 402.04L544.71 545.35" stroke="hsl(228.5, 77.2%, 51.5%)" stroke-width="1.5"></path><path d="M522.9 402.04L365.75 494.21" stroke="hsl(228.5, 77.2%, 51.5%)" stroke-width="1.5"></path><path d="M522.9 402.04L698.59 520.96" stroke="hsl(228.5, 77.2%, 51.5%)" stroke-width="1.5"></path><path d="M522.9 402.04L804.21 360.03" stroke="hsl(228.5, 77.2%, 51.5%)" stroke-width="1.5"></path><path d="M522.9 402.04L495.61 696.53" stroke="hsl(228.5, 77.2%, 51.5%)" stroke-width="1.5"></path><path d="M522.9 402.04L407.87 681.3" stroke="hsl(228.5, 77.2%, 51.5%)" stroke-width="1.5"></path><path d="M544.71 545.35L544.71 545.35" stroke="hsl(228.5, 77.2%, 51.5%)" stroke-width="1.5"></path><path d="M544.71 545.35L698.59 520.96" stroke="hsl(228.5, 77.2%, 51.5%)" stroke-width="1.5"></path><path d="M544.71 545.35L495.61 696.53" stroke="hsl(228.5, 77.2%, 51.5%)" stroke-width="1.5"></path><path d="M544.71 545.35L365.75 494.21" stroke="hsl(228.5, 77.2%, 51.5%)" stroke-width="1.5"></path><path d="M544.71 545.35L680.7 679.08" stroke="hsl(228.5, 77.2%, 51.5%)" stroke-width="1.5"></path><path d="M544.71 545.35L407.87 681.3" stroke="hsl(228.5, 77.2%, 51.5%)" stroke-width="1.5"></path><path d="M947.34 533.46L947.34 533.46" stroke="hsl(228.5, 77.2%, 51.5%)" stroke-width="1.5"></path><path d="M947.34 533.46L974.89 680.46" stroke="hsl(228.5, 77.2%, 51.5%)" stroke-width="1.5"></path><path d="M947.34 533.46L802.32 641.59" stroke="hsl(228.5, 77.2%, 51.5%)" stroke-width="1.5"></path><path d="M947.34 533.46L1131.79 518.76" stroke="hsl(228.5, 77.2%, 51.5%)" stroke-width="1.5"></path><path d="M947.34 533.46L1109.6 673.83" stroke="hsl(228.5, 77.2%, 51.5%)" stroke-width="1.5"></path><path d="M947.34 533.46L804.21 360.03" stroke="hsl(228.5, 77.2%, 51.5%)" stroke-width="1.5"></path><path d="M1124.59 213.81L1124.59 213.81" stroke="hsl(228.5, 77.2%, 51.5%)" stroke-width="1.5"></path><path d="M1124.59 213.81L1116.43 372.95" stroke="hsl(228.5, 77.2%, 51.5%)" stroke-width="1.5"></path><path d="M1124.59 213.81L1299.73 218.64" stroke="hsl(228.5, 77.2%, 51.5%)" stroke-width="1.5"></path><path d="M1124.59 213.81L950.36 254.91" stroke="hsl(228.5, 77.2%, 51.5%)" stroke-width="1.5"></path><path d="M1124.59 213.81L1252.55 65.3" stroke="hsl(228.5, 77.2%, 51.5%)" stroke-width="1.5"></path><path d="M1124.59 213.81L1277.86 343.63" stroke="hsl(228.5, 77.2%, 51.5%)" stroke-width="1.5"></path><path d="M1109.6 673.83L1109.6 673.83" stroke="hsl(228.5, 77.2%, 51.5%)" stroke-width="1.5"></path><path d="M1109.6 673.83L974.89 680.46" stroke="hsl(228.5, 77.2%, 51.5%)" stroke-width="1.5"></path><path d="M1109.6 673.83L1131.79 518.76" stroke="hsl(228.5, 77.2%, 51.5%)" stroke-width="1.5"></path><path d="M1109.6 673.83L1278.5 670.31" stroke="hsl(228.5, 77.2%, 51.5%)" stroke-width="1.5"></path><path d="M-70.89 547.05L-70.89 547.05" stroke="hsl(228.5, 77.2%, 51.5%)" stroke-width="1.5"></path><path d="M-70.89 547.05L-98.92 703.01" stroke="hsl(228.5, 77.2%, 51.5%)" stroke-width="1.5"></path><path d="M-70.89 547.05L50.12 662.34" stroke="hsl(228.5, 77.2%, 51.5%)" stroke-width="1.5"></path><path d="M-70.89 547.05L187.92 516.59" stroke="hsl(228.5, 77.2%, 51.5%)" stroke-width="1.5"></path><path d="M-98.92 703.01L-98.92 703.01" stroke="hsl(228.5, 77.2%, 51.5%)" stroke-width="1.5"></path><path d="M-98.92 703.01L50.12 662.34" stroke="hsl(228.5, 77.2%, 51.5%)" stroke-width="1.5"></path><path d="M50.12 662.34L50.12 662.34" stroke="hsl(228.5, 77.2%, 51.5%)" stroke-width="1.5"></path><path d="M50.12 662.34L190.86 691.58" stroke="hsl(228.5, 77.2%, 51.5%)" stroke-width="1.5"></path><path d="M50.12 662.34L187.92 516.59" stroke="hsl(228.5, 77.2%, 51.5%)" stroke-width="1.5"></path><path d="M50.12 662.34L365.75 494.21" stroke="hsl(228.5, 77.2%, 51.5%)" stroke-width="1.5"></path><path d="M187.92 516.59L187.92 516.59" stroke="hsl(228.5, 77.2%, 51.5%)" stroke-width="1.5"></path><path d="M187.92 516.59L190.86 691.58" stroke="hsl(228.5, 77.2%, 51.5%)" stroke-width="1.5"></path><path d="M187.92 516.59L365.75 494.21" stroke="hsl(228.5, 77.2%, 51.5%)" stroke-width="1.5"></path><path d="M187.92 516.59L407.87 681.3" stroke="hsl(228.5, 77.2%, 51.5%)" stroke-width="1.5"></path><path d="M190.86 691.58L190.86 691.58" stroke="hsl(228.5, 77.2%, 51.5%)" stroke-width="1.5"></path><path d="M365.75 494.21L365.75 494.21" stroke="hsl(228.5, 77.2%, 51.5%)" stroke-width="1.5"></path><path d="M365.75 494.21L407.87 681.3" stroke="hsl(228.5, 77.2%, 51.5%)" stroke-width="1.5"></path><path d="M407.87 681.3L407.87 681.3" stroke="hsl(228.5, 77.2%, 51.5%)" stroke-width="1.5"></path><path d="M407.87 681.3L495.61 696.53" stroke="hsl(228.5, 77.2%, 51.5%)" stroke-width="1.5"></path><path d="M407.87 681.3L190.86 691.58" stroke="hsl(228.5, 77.2%, 51.5%)" stroke-width="1.5"></path><path d="M407.87 681.3L680.7 679.08" stroke="hsl(228.5, 77.2%, 51.5%)" stroke-width="1.5"></path><path d="M495.61 696.53L495.61 696.53" stroke="hsl(228.5, 77.2%, 51.5%)" stroke-width="1.5"></path><path d="M495.61 696.53L680.7 679.08" stroke="hsl(228.5, 77.2%, 51.5%)" stroke-width="1.5"></path><path d="M495.61 696.53L365.75 494.21" stroke="hsl(228.5, 77.2%, 51.5%)" stroke-width="1.5"></path><path d="M495.61 696.53L698.59 520.96" stroke="hsl(228.5, 77.2%, 51.5%)" stroke-width="1.5"></path><path d="M698.59 520.96L698.59 520.96" stroke="hsl(228.5, 77.2%, 51.5%)" stroke-width="1.5"></path><path d="M698.59 520.96L802.32 641.59" stroke="hsl(228.5, 77.2%, 51.5%)" stroke-width="1.5"></path><path d="M698.59 520.96L680.7 679.08" stroke="hsl(228.5, 77.2%, 51.5%)" stroke-width="1.5"></path><path d="M698.59 520.96L804.21 360.03" stroke="hsl(228.5, 77.2%, 51.5%)" stroke-width="1.5"></path><path d="M680.7 679.08L680.7 679.08" stroke="hsl(228.5, 77.2%, 51.5%)" stroke-width="1.5"></path><path d="M680.7 679.08L802.32 641.59" stroke="hsl(228.5, 77.2%, 51.5%)" stroke-width="1.5"></path><path d="M804.21 360.03L804.21 360.03" stroke="hsl(228.5, 77.2%, 51.5%)" stroke-width="1.5"></path><path d="M804.21 360.03L950.36 254.91" stroke="hsl(228.5, 77.2%, 51.5%)" stroke-width="1.5"></path><path d="M804.21 360.03L802.32 641.59" stroke="hsl(228.5, 77.2%, 51.5%)" stroke-width="1.5"></path><path d="M802.32 641.59L802.32 641.59" stroke="hsl(228.5, 77.2%, 51.5%)" stroke-width="1.5"></path><path d="M802.32 641.59L974.89 680.46" stroke="hsl(228.5, 77.2%, 51.5%)" stroke-width="1.5"></path><path d="M950.36 254.91L950.36 254.91" stroke="hsl(228.5, 77.2%, 51.5%)" stroke-width="1.5"></path><path d="M950.36 254.91L1116.43 372.95" stroke="hsl(228.5, 77.2%, 51.5%)" stroke-width="1.5"></path><path d="M974.89 680.46L974.89 680.46" stroke="hsl(228.5, 77.2%, 51.5%)" stroke-width="1.5"></path><path d="M1116.43 372.95L1116.43 372.95" stroke="hsl(228.5, 77.2%, 51.5%)" stroke-width="1.5"></path><path d="M1116.43 372.95L1131.79 518.76" stroke="hsl(228.5, 77.2%, 51.5%)" stroke-width="1.5"></path><path d="M1116.43 372.95L1277.86 343.63" stroke="hsl(228.5, 77.2%, 51.5%)" stroke-width="1.5"></path><path d="M1131.79 518.76L1131.79 518.76" stroke="hsl(228.5, 77.2%, 51.5%)" stroke-width="1.5"></path><path d="M1131.79 518.76L1310.12 497.21" stroke="hsl(228.5, 77.2%, 51.5%)" stroke-width="1.5"></path><path d="M1131.79 518.76L1278.5 670.31" stroke="hsl(228.5, 77.2%, 51.5%)" stroke-width="1.5"></path><path d="M1279.17 -85.79L1279.17 -85.79" stroke="hsl(228.5, 77.2%, 51.5%)" stroke-width="1.5"></path><path d="M1279.17 -85.79L1422.91 -47.47" stroke="hsl(228.5, 77.2%, 51.5%)" stroke-width="1.5"></path><path d="M1252.55 65.3L1252.55 65.3" stroke="hsl(228.5, 77.2%, 51.5%)" stroke-width="1.5"></path><path d="M1252.55 65.3L1405.5 72.74" stroke="hsl(228.5, 77.2%, 51.5%)" stroke-width="1.5"></path><path d="M1252.55 65.3L1279.17 -85.79" stroke="hsl(228.5, 77.2%, 51.5%)" stroke-width="1.5"></path><path d="M1299.73 218.64L1299.73 218.64" stroke="hsl(228.5, 77.2%, 51.5%)" stroke-width="1.5"></path><path d="M1299.73 218.64L1277.86 343.63" stroke="hsl(228.5, 77.2%, 51.5%)" stroke-width="1.5"></path><path d="M1299.73 218.64L1441.74 240.07" stroke="hsl(228.5, 77.2%, 51.5%)" stroke-width="1.5"></path><path d="M1277.86 343.63L1277.86 343.63" stroke="hsl(228.5, 77.2%, 51.5%)" stroke-width="1.5"></path><path d="M1277.86 343.63L1310.12 497.21" stroke="hsl(228.5, 77.2%, 51.5%)" stroke-width="1.5"></path><path d="M1277.86 343.63L1460.37 358.34" stroke="hsl(228.5, 77.2%, 51.5%)" stroke-width="1.5"></path><path d="M1310.12 497.21L1310.12 497.21" stroke="hsl(228.5, 77.2%, 51.5%)" stroke-width="1.5"></path><path d="M1310.12 497.21L1389.07 494.3" stroke="hsl(228.5, 77.2%, 51.5%)" stroke-width="1.5"></path><path d="M1310.12 497.21L1278.5 670.31" stroke="hsl(228.5, 77.2%, 51.5%)" stroke-width="1.5"></path><path d="M1278.5 670.31L1278.5 670.31" stroke="hsl(228.5, 77.2%, 51.5%)" stroke-width="1.5"></path><path d="M1278.5 670.31L1389.07 494.3" stroke="hsl(228.5, 77.2%, 51.5%)" stroke-width="1.5"></path><path d="M1278.5 670.31L1543.2 527.26" stroke="hsl(228.5, 77.2%, 51.5%)" stroke-width="1.5"></path><path d="M1422.91 -47.47L1422.91 -47.47" stroke="hsl(228.5, 77.2%, 51.5%)" stroke-width="1.5"></path><path d="M1422.91 -47.47L1405.5 72.74" stroke="hsl(228.5, 77.2%, 51.5%)" stroke-width="1.5"></path><path d="M1405.5 72.74L1405.5 72.74" stroke="hsl(228.5, 77.2%, 51.5%)" stroke-width="1.5"></path><path d="M1405.5 72.74L1441.74 240.07" stroke="hsl(228.5, 77.2%, 51.5%)" stroke-width="1.5"></path><path d="M1405.5 72.74L1299.73 218.64" stroke="hsl(228.5, 77.2%, 51.5%)" stroke-width="1.5"></path><path d="M1441.74 240.07L1441.74 240.07" stroke="hsl(228.5, 77.2%, 51.5%)" stroke-width="1.5"></path><path d="M1441.74 240.07L1460.37 358.34" stroke="hsl(228.5, 77.2%, 51.5%)" stroke-width="1.5"></path><path d="M1441.74 240.07L1609.65 226.3" stroke="hsl(228.5, 77.2%, 51.5%)" stroke-width="1.5"></path><path d="M1441.74 240.07L1567.17 384.55" stroke="hsl(228.5, 77.2%, 51.5%)" stroke-width="1.5"></path><path d="M1460.37 358.34L1460.37 358.34" stroke="hsl(228.5, 77.2%, 51.5%)" stroke-width="1.5"></path><path d="M1460.37 358.34L1567.17 384.55" stroke="hsl(228.5, 77.2%, 51.5%)" stroke-width="1.5"></path><path d="M1389.07 494.3L1389.07 494.3" stroke="hsl(228.5, 77.2%, 51.5%)" stroke-width="1.5"></path><path d="M1389.07 494.3L1460.37 358.34" stroke="hsl(228.5, 77.2%, 51.5%)" stroke-width="1.5"></path><path d="M1599.4 -60.36L1599.4 -60.36" stroke="hsl(228.5, 77.2%, 51.5%)" stroke-width="1.5"></path><path d="M1599.4 -60.36L1605.3 82.64" stroke="hsl(228.5, 77.2%, 51.5%)" stroke-width="1.5"></path><path d="M1599.4 -60.36L1422.91 -47.47" stroke="hsl(228.5, 77.2%, 51.5%)" stroke-width="1.5"></path><path d="M1599.4 -60.36L1405.5 72.74" stroke="hsl(228.5, 77.2%, 51.5%)" stroke-width="1.5"></path><path d="M1599.4 -60.36L1609.65 226.3" stroke="hsl(228.5, 77.2%, 51.5%)" stroke-width="1.5"></path><path d="M1605.3 82.64L1605.3 82.64" stroke="hsl(228.5, 77.2%, 51.5%)" stroke-width="1.5"></path><path d="M1605.3 82.64L1609.65 226.3" stroke="hsl(228.5, 77.2%, 51.5%)" stroke-width="1.5"></path><path d="M1605.3 82.64L1405.5 72.74" stroke="hsl(228.5, 77.2%, 51.5%)" stroke-width="1.5"></path><path d="M1605.3 82.64L1422.91 -47.47" stroke="hsl(228.5, 77.2%, 51.5%)" stroke-width="1.5"></path><path d="M1605.3 82.64L1441.74 240.07" stroke="hsl(228.5, 77.2%, 51.5%)" stroke-width="1.5"></path><path d="M1605.3 82.64L1567.17 384.55" stroke="hsl(228.5, 77.2%, 51.5%)" stroke-width="1.5"></path><path d="M1609.65 226.3L1609.65 226.3" stroke="hsl(228.5, 77.2%, 51.5%)" stroke-width="1.5"></path><path d="M1609.65 226.3L1567.17 384.55" stroke="hsl(228.5, 77.2%, 51.5%)" stroke-width="1.5"></path><path d="M1567.17 384.55L1567.17 384.55" stroke="hsl(228.5, 77.2%, 51.5%)" stroke-width="1.5"></path><path d="M1567.17 384.55L1543.2 527.26" stroke="hsl(228.5, 77.2%, 51.5%)" stroke-width="1.5"></path><path d="M1543.2 527.26L1543.2 527.26" stroke="hsl(228.5, 77.2%, 51.5%)" stroke-width="1.5"></path><path d="M1543.2 527.26L1585.07 645.7" stroke="hsl(228.5, 77.2%, 51.5%)" stroke-width="1.5"></path><path d="M1543.2 527.26L1389.07 494.3" stroke="hsl(228.5, 77.2%, 51.5%)" stroke-width="1.5"></path><path d="M1543.2 527.26L1460.37 358.34" stroke="hsl(228.5, 77.2%, 51.5%)" stroke-width="1.5"></path><path d="M1543.2 527.26L1310.12 497.21" stroke="hsl(228.5, 77.2%, 51.5%)" stroke-width="1.5"></path><path d="M1585.07 645.7L1585.07 645.7" stroke="hsl(228.5, 77.2%, 51.5%)" stroke-width="1.5"></path><path d="M1585.07 645.7L1389.07 494.3" stroke="hsl(228.5, 77.2%, 51.5%)" stroke-width="1.5"></path><path d="M1585.07 645.7L1567.17 384.55" stroke="hsl(228.5, 77.2%, 51.5%)" stroke-width="1.5"></path><circle r="25" cx="41.64" cy="503.36" fill="url(&quot;#SvgjsRadialGradient1001&quot;)"></circle><circle r="25" cx="522.9" cy="402.04" fill="url(&quot;#SvgjsRadialGradient1001&quot;)"></circle><circle r="25" cx="544.71" cy="545.35" fill="url(&quot;#SvgjsRadialGradient1001&quot;)"></circle><circle r="25" cx="947.34" cy="533.46" fill="url(&quot;#SvgjsRadialGradient1001&quot;)"></circle><circle r="25" cx="1124.59" cy="213.81" fill="url(&quot;#SvgjsRadialGradient1001&quot;)"></circle><circle r="25" cx="1109.6" cy="673.83" fill="url(&quot;#SvgjsRadialGradient1001&quot;)"></circle><circle r="5" cx="-70.89" cy="547.05" fill="#8b9ad9"></circle><circle r="5" cx="-98.92" cy="703.01" fill="#8b9ad9"></circle><circle r="5" cx="50.12" cy="662.34" fill="#8b9ad9"></circle><circle r="5" cx="187.92" cy="516.59" fill="#8b9ad9"></circle><circle r="5" cx="190.86" cy="691.58" fill="#8b9ad9"></circle><circle r="5" cx="365.75" cy="494.21" fill="#8b9ad9"></circle><circle r="5" cx="407.87" cy="681.3" fill="#8b9ad9"></circle><circle r="5" cx="495.61" cy="696.53" fill="#8b9ad9"></circle><circle r="5" cx="698.59" cy="520.96" fill="#8b9ad9"></circle><circle r="5" cx="680.7" cy="679.08" fill="#8b9ad9"></circle><circle r="5" cx="804.21" cy="360.03" fill="#8b9ad9"></circle><circle r="5" cx="802.32" cy="641.59" fill="#8b9ad9"></circle><circle r="5" cx="950.36" cy="254.91" fill="#8b9ad9"></circle><circle r="5" cx="974.89" cy="680.46" fill="#8b9ad9"></circle><circle r="5" cx="1116.43" cy="372.95" fill="#8b9ad9"></circle><circle r="5" cx="1131.79" cy="518.76" fill="#8b9ad9"></circle><circle r="5" cx="1279.17" cy="-85.79" fill="#8b9ad9"></circle><circle r="5" cx="1252.55" cy="65.3" fill="#8b9ad9"></circle><circle r="5" cx="1299.73" cy="218.64" fill="#8b9ad9"></circle><circle r="5" cx="1277.86" cy="343.63" fill="#8b9ad9"></circle><circle r="5" cx="1310.12" cy="497.21" fill="#8b9ad9"></circle><circle r="5" cx="1278.5" cy="670.31" fill="#8b9ad9"></circle><circle r="5" cx="1422.91" cy="-47.47" fill="#8b9ad9"></circle><circle r="5" cx="1405.5" cy="72.74" fill="#8b9ad9"></circle><circle r="5" cx="1441.74" cy="240.07" fill="#8b9ad9"></circle><circle r="5" cx="1460.37" cy="358.34" fill="#8b9ad9"></circle><circle r="5" cx="1389.07" cy="494.3" fill="#8b9ad9"></circle><circle r="5" cx="1599.4" cy="-60.36" fill="#8b9ad9"></circle><circle r="5" cx="1605.3" cy="82.64" fill="#8b9ad9"></circle><circle r="5" cx="1609.65" cy="226.3" fill="#8b9ad9"></circle><circle r="5" cx="1567.17" cy="384.55" fill="#8b9ad9"></circle><circle r="5" cx="1543.2" cy="527.26" fill="#8b9ad9"></circle><circle r="5" cx="1585.07" cy="645.7" fill="#8b9ad9"></circle></g><defs><mask id="SvgjsMask1000"><rect width="1440" height="560" fill="#ffffff"></rect></mask><radialGradient id="SvgjsRadialGradient1001"><stop stop-color="#ffffff" offset="0.1"></stop><stop stop-color="#1735b3" offset="0.2"></stop><stop stop-color="rgba(23, 53, 179, 0)" offset="1"></stop></radialGradient></defs></svg>