<svg xmlns="http://www.w3.org/2000/svg" version="1.1" xmlns:xlink="http://www.w3.org/1999/xlink" xmlns:svgjs="http://svgjs.dev/svgjs" width="1440" height="560" preserveAspectRatio="none" viewBox="0 0 1440 560"><g mask="url(&quot;#SvgjsMask1000&quot;)" fill="none"><rect width="1440" height="560" x="0" y="0" fill="#0e2a47"></rect><path d="M0,370.806C66.824,353.732,125.383,322.557,184.932,287.759C247.23,251.355,313.451,220.801,356.19,162.667C405.082,96.164,446.97,18.718,443.352,-63.744C439.601,-149.25,404.582,-239.815,336.271,-291.38C270.284,-341.191,177.932,-317.002,95.76,-326.128C29.479,-333.49,-34.913,-355.306,-99.777,-339.81C-166.695,-323.823,-225.99,-286.665,-274.334,-237.711C-324.977,-186.428,-371.59,-126.239,-381.224,-54.812C-390.826,16.377,-345.32,79.785,-326.509,149.112C-303.258,234.805,-331.054,350.949,-257.596,400.826C-184.599,450.39,-85.487,392.648,0,370.806" fill="#0b2239"></path><path d="M1440 1035.853C1530.651 1026.283 1610.911 990.021 1696.879 959.711 1811.161 919.418 1964.091 931.482 2028.013 828.5360000000001 2090.805 727.409 2012.306 597.973 1994.579 480.264 1976.99 363.475 1994.326 235.45100000000002 1924.362 140.298 1852.6 42.698999999999955 1735.9470000000001-29.182999999999993 1614.996-35.98000000000002 1499.719-42.45799999999997 1417.541 73.70100000000002 1306.57 105.57999999999998 1194.585 137.75 1058.513 78.017 967.023 150.163 874.143 223.40499999999997 841.499 355.427 839.754 473.698 838.105 585.438 902.956 682.836 957.725 780.2470000000001 1008.251 870.1120000000001 1054.635 969.619 1145.7269999999999 1017.898 1234.354 1064.87 1340.249 1046.384 1440 1035.853" fill="#113255"></path></g><defs><mask id="SvgjsMask1000"><rect width="1440" height="560" fill="#ffffff"></rect></mask></defs></svg>