<svg xmlns="http://www.w3.org/2000/svg" version="1.1" xmlns:xlink="http://www.w3.org/1999/xlink" xmlns:svgjs="http://svgjs.dev/svgjs" width="1440" height="560" preserveAspectRatio="none" viewBox="0 0 1440 560"><g mask="url(&quot;#SvgjsMask1004&quot;)" fill="none"><rect width="1440" height="560" x="0" y="0" fill="#0e2a47"></rect><path d="M 0,93 C 57.6,112 172.8,190.6 288,188 C 403.2,185.4 460.8,84.4 576,80 C 691.2,75.6 748.8,164.6 864,166 C 979.2,167.4 1036.8,87.2 1152,87 C 1267.2,86.8 1382.4,149.4 1440,165L1440 560L0 560z" fill="#184a7e"></path><path d="M 0,436 C 96,406.8 288,273.4 480,290 C 672,306.6 768,501.8 960,519 C 1152,536.2 1344,404.6 1440,376L1440 560L0 560z" fill="#2264ab"></path></g><defs><mask id="SvgjsMask1004"><rect width="1440" height="560" fill="#ffffff"></rect></mask></defs></svg>